<?xml version="1.0" standalone="no"?>
<!DOCTYPE svg PUBLIC "-//W3C//DTD SVG 20010904//EN"
 "http://www.w3.org/TR/2001/REC-SVG-20010904/DTD/svg10.dtd">
<svg version="1.0" xmlns="http://www.w3.org/2000/svg"
 width="1024.000000pt" height="1024.000000pt" viewBox="0 0 1024.000000 1024.000000"
 preserveAspectRatio="xMidYMid meet">

<g transform="translate(0.000000,1024.000000) scale(0.100000,-0.100000)"
fill="#000000" stroke="none">
<path d="M3706 7489 c-297 -28 -608 -129 -861 -280 -377 -224 -727 -616 -899
-1006 -85 -193 -164 -469 -188 -653 -19 -155 -17 -498 5 -640 64 -415 230
-781 506 -1117 257 -313 611 -555 999 -683 199 -65 351 -91 582 -97 279 -8
508 30 779 126 366 131 728 416 952 749 l69 103 0 803 0 802 -935 1 -935 1 0
-344 0 -344 565 0 565 0 0 -383 0 -383 -62 -60 c-244 -237 -566 -364 -923
-364 -303 0 -552 76 -810 248 -136 90 -332 284 -415 412 -206 316 -287 644
-251 1025 56 598 435 1104 982 1315 232 89 525 112 776 61 219 -45 444 -154
593 -287 28 -26 52 -45 54 -43 1 2 15 27 31 54 89 158 221 345 316 450 l54 58
-50 44 c-28 24 -99 77 -160 118 -301 202 -653 305 -1090 319 -82 3 -195 0
-249 -5z"/>
<path d="M6555 7459 c-674 -92 -1210 -487 -1531 -1130 -80 -161 -128 -285
-160 -414 -13 -55 -24 -103 -24 -107 0 -5 161 -8 358 -8 l357 0 34 98 c70 202
168 360 311 502 180 179 365 285 605 346 134 35 384 44 521 20 312 -54 576
-212 812 -486 l30 -35 30 22 c16 11 142 103 280 203 139 100 252 185 252 189
0 14 -159 188 -246 270 -280 262 -643 446 -1009 512 -136 24 -497 35 -620 18z"/>
<path d="M7818 4247 c-164 -228 -471 -413 -778 -468 -111 -20 -346 -18 -450 4
-257 55 -457 163 -638 343 l-103 103 5 -138 4 -138 -64 -104 c-36 -57 -98
-147 -139 -200 l-73 -96 66 -65 c178 -174 377 -285 665 -372 357 -108 749 -99
1122 25 338 113 620 304 882 599 51 58 93 110 93 116 0 11 -540 445 -552 444
-2 -1 -20 -25 -40 -53z"/>
</g>
</svg>
